<?xml version="1.0" encoding="utf-8"?>
<!-- Generator: Adobe Illustrator 14.0.0, SVG Export Plug-In . SVG Version: 6.00 Build 43363)  -->
<!DOCTYPE svg PUBLIC "-//W3C//DTD SVG 1.1//EN" "http://www.w3.org/Graphics/SVG/1.1/DTD/svg11.dtd">
<svg version="1.1" id="Layer_1" xmlns="http://www.w3.org/2000/svg" xmlns:xlink="http://www.w3.org/1999/xlink" x="0px" y="0px"
	 width="169.325px" height="73.365px" viewBox="0 0 169.325 73.365" enable-background="new 0 0 169.325 73.365"
	 xml:space="preserve">
<path fill-rule="evenodd" clip-rule="evenodd" fill="#77B433" d="M164.953,14.009c0,4.568,0,9.603,0,14.46
	c0,4.754-0.465,9.515,0.673,13.452c0.457,1,2.324,0.591,3.699,0.673c0,2.241,0,4.483,0,6.726c-4.119,0.813-9.089,0.887-12.442-0.673
	c-1.035-0.642-1.651-1.594-2.019-2.69c-1.343-4.761-0.375-16.439-0.672-24.549c-0.412-1.27-2.369-0.995-4.036-1.009
	c0-2.13,0-4.26,0-6.39C155.089,14.009,160.021,14.009,164.953,14.009z"/>
<path display="none" fill-rule="evenodd" clip-rule="evenodd" fill="#77B433" d="M154.192,0c3.699,0,7.398,0,11.098,0
	c0,2.802,0,5.604,0,8.407c-3.699,0-7.398,0-11.098,0C154.192,5.604,154.192,2.802,154.192,0z"/>
<path fill-rule="evenodd" clip-rule="evenodd" fill="#77B433" d="M147.803,41.364c0.479,1.315,2.112,1.475,4.035,1.346
	c0,2.13,0,4.26,0,6.39c-5.021,1.206-12.584,1.232-14.124-3.026c-1.986,1.26-4.963,3.243-8.408,3.699
	c-4.589,0.607-8.675-0.916-11.098-3.363c-1.205-1.766-1.564-3.144-2.018-5.045c-0.252-1.765-0.225-3.362,0-4.708
	c0.393-1.542,1.075-2.512,1.682-3.699c3.468-4.267,10.804-4.666,18.832-4.372c0.498-1.748,0.64-4.114,0-5.717
	c-0.514-1.29-1.008-1.793-2.018-2.354c-1.92-0.451-5.261-0.65-6.726,0.336c-1.815,0.539-2.364,2.344-3.363,3.699
	c-2.018,0-4.035,0-6.053,0c0-3.25,0-6.501,0-9.752c5.193-0.859,10.136-1.971,16.479-1.682c5.18,0.425,8.731,2.479,11.098,5.717
	C148.756,24.268,147.528,33.567,147.803,41.364z M126.952,38.337c0.022,5.238,7.47,4.412,10.089,2.018c0-2.018,0-4.035,0-6.053
	C132.233,34.203,127.013,33.69,126.952,38.337z"/>
<path display="none" fill-rule="evenodd" clip-rule="evenodd" d="M116.19,11.098c0.092,4.912-2.077,7.563-5.717,8.744
	c0.659,1.583,1.513,1.766,2.018,4.708c0.492,11.253-7.318,14.205-18.833,13.452c-0.726,0.726-0.673,0.841-0.673,2.018
	c0,2.732,2.989,1.944,5.381,2.018c2.466,0,4.932,0,7.399,0c3.813,0.334,6.718,1.577,8.743,3.699c1.369,2.008,1.279,7.824,0,10.426
	c-0.757,1.539-1.625,2.662-3.026,3.699c-3.391,1.878-6.988,2.876-11.435,3.362c-3.026,0-6.053,0-9.08,0
	c-1.819-0.311-3.784-0.476-5.381-1.009c-4.063-1.261-4.512-2.382-5.38-4.035c-0.745-2.464-0.211-5.553,0.672-7.398
	c1.362-1.217,2.903-2.254,5.044-2.69c0.82-0.415-1.055-0.931-1.345-1.346c-0.546-0.546-0.883-1.197-1.009-2.018
	c-0.523-4.11,0.807-6.367,2.69-8.071c-1.568-1.235-3.08-2.526-4.372-4.036c-0.645-1.008-1.065-2.101-1.345-3.363
	c-0.224-2.102-0.336-3.671,0-6.39c0.561-2.298,0.925-3.587,3.027-5.717c2.55-2.213,5.829-3.592,10.425-4.036
	c4.701-0.329,7.782,0.961,12.442,0.673c0.577-0.433,1.323-0.696,1.346-1.682c0-0.336,0-0.672,0-1.009
	C110.586,11.098,113.388,11.098,116.19,11.098z M100.385,21.523c-1.598-1.961-6.306-1.905-8.071,0
	c-1.822,2.522-1.569,8.268,1.009,9.752c2.466,1.038,5.101,0.925,7.062-0.673C102.263,28.726,102.179,23.934,100.385,21.523z
	 M92.986,49.772c-1.491,0.639-2.642,1.617-2.354,4.035c0.145,0.641,0.084,1.262,0.673,1.682c3.82,2.396,16.423,2.158,13.115-4.708
	C103.047,49.072,98.507,50.249,92.986,49.772z"/>
<path display="none" fill-rule="evenodd" clip-rule="evenodd" fill="#77B433" d="M64.064,0c3.699,0,7.398,0,11.098,0
	c0,2.802,0,5.604,0,8.407c-3.699,0-7.398,0-11.098,0C64.064,5.604,64.064,2.802,64.064,0z"/>
<path fill-rule="evenodd" clip-rule="evenodd" fill="#77B433" d="M21.075,0.056c4.932,0,9.865,0,14.797,0
	c0,9.724,0.336,19.981,0.336,28.921c3.615,0.505,2.521-0.252,5.044-3.699c1.051-1.752,2.168-3.179,3.363-5.044
	c-1.581,0-2.247,0.001-3.699,0.001c0-0.974,0-4.727,0-6.055c5.605,0,11.21,0,16.815,0c0,2.13,0,4.26,0,6.39
	c-1.009,0-2.018,0-3.027,0c-3.001,2.828-4.854,6.805-7.734,9.753c2.263,4.014,5.016,8.323,8.407,10.425
	c1.373,0.561,2.288,0.851,4.036,0.673c0,2.69,0,5.381,0,8.071c-4.636,1.195-10.225-0.788-11.827-2.018
	c-2.298-1.822-4.946-4.806-5.997-6.727c-0.967-1.47-2.819-7.27-5.044-7.062c-0.834,0.238-0.672,1.387-0.672,2.649
	c0,1.288,0,4.862,0,6.431c0.883,0,2.342-0.001,3.363-0.001c0,2.242,0,4.484,0,6.727c-6.054,0-12.107,0-18.16,0
	c0-2.242,0-4.484,0-6.727c1.236-0.109,2.977,0.287,3.699-0.336c0.782-10.988,0.114-23.427,0.336-34.975
	c-0.625-0.945-2.5-0.64-4.036-0.673C21.075,4.54,21.075,2.298,21.075,0.056z"/>
<g>
	<g>
		<path fill="#77B433" d="M19.422,72.962h-1.747v-11.81l-4.759,11.81h-0.709l-4.78-11.811v11.811H5.681v-14.04h2.497l4.388,10.842
			l4.357-10.842h2.5V72.962z"/>
		<path fill="#77B433" d="M42.937,72.962h-1.795l-1.201-3.114h-7.078l-1.207,3.114h-1.995l5.469-14.04h2.363L42.937,72.962z
			 M39.338,68.286l-2.928-7.593l-2.942,7.593H39.338z"/>
		<path fill="#77B433" d="M60.04,73.24c-2.037,0-3.75-0.677-5.142-2.03c-1.392-1.354-2.088-3.105-2.088-5.255
			s0.692-3.897,2.078-5.246c1.385-1.349,3.102-2.022,5.152-2.022c2.245,0,4.069,0.869,5.474,2.608l-1.414,0.883
			c-0.453-0.588-1.039-1.057-1.758-1.405c-0.72-0.35-1.487-0.523-2.303-0.523c-1.554,0-2.842,0.532-3.866,1.596
			c-1.023,1.063-1.535,2.431-1.535,4.1c0,1.667,0.515,3.039,1.545,4.117c1.03,1.077,2.315,1.616,3.855,1.616
			c0.773,0,1.495-0.151,2.166-0.454s1.211-0.657,1.623-1.063v-2.86h-4.811v-1.562h6.558v5.073C64.13,72.43,62.284,73.24,60.04,73.24
			z"/>
		<path fill="#77B433" d="M88.628,72.962h-1.795l-1.201-3.114h-7.078l-1.207,3.114h-1.995l5.469-14.04h2.363L88.628,72.962z
			 M85.029,68.286l-2.928-7.593l-2.942,7.593H85.029z"/>
		<path fill="#77B433" d="M108.719,72.962H98.442v-1.447l7.892-11.03h-7.895v-1.562h10.133v1.44L100.65,71.4h8.068V72.962z"/>
		<path fill="#77B433" d="M121.557,72.962h-1.747v-14.04h1.747V72.962z"/>
		<path fill="#77B433" d="M144.87,72.962h-1.686l-8.182-11.202v11.202h-1.747v-14.04h1.711l8.156,11.062V58.922h1.747V72.962z"/>
		<path fill="#77B433" d="M165.768,72.962h-9.199v-14.04h9.199v1.562h-7.452v4.512h7.298v1.562h-7.298V71.4h7.452V72.962z"/>
	</g>
</g>
<path fill-rule="evenodd" clip-rule="evenodd" fill="#77B433" d="M81.889,32.621c1.292,1.51,2.804,2.801,4.372,4.036
	c-1.883,1.704-3.214,3.96-2.69,8.071c0.126,0.82,0.462,1.472,1.009,2.018c0.29,0.415,2.166,0.931,1.345,1.346
	c-2.141,0.437-3.682,1.474-5.044,2.69c-0.442,0.924-0.797,2.161-0.947,3.475h10.787c-0.032-0.209-0.06-0.419-0.104-0.614
	c-0.288-2.418,0.88-3.23,2.371-3.869c5.521,0.477,10.061-0.7,11.434,1.009c0.692,1.437,0.686,2.582,0.211,3.475h10.271
	c0.08,0,0.155,0.006,0.229,0.015c0.635-2.885,0.474-6.928-0.622-8.534c-2.024-2.122-4.93-3.365-8.743-3.699h-7.399
	c-2.392-0.073-5.381,0.715-5.381-2.018c0-1.177-0.053-1.292,0.673-2.018c11.514,0.753,19.325-2.199,18.833-13.452
	c-0.505-2.942-1.358-3.125-2.018-4.708c3.64-1.18,5.809-3.832,5.717-8.744h-8.407v1.009c-0.022,0.986-0.769,1.249-1.346,1.682
	c-4.66,0.288-7.742-1.002-12.442-0.673c-4.596,0.443-7.875,1.822-10.425,4.036c-2.102,2.13-2.466,3.419-3.026,5.717
	c-0.336,2.719-0.224,4.288,0,6.39C80.824,30.52,81.244,31.612,81.889,32.621z M92.313,21.523c1.766-1.905,6.474-1.961,8.071,0
	c1.794,2.411,1.878,7.203,0,9.08c-1.961,1.598-4.596,1.71-7.062,0.673C90.744,29.791,90.492,24.045,92.313,21.523z"/>
<path fill-rule="evenodd" clip-rule="evenodd" fill="#77B433" d="M14.797,14.124c0,4.568,0,9.603,0,14.461
	c0,4.754-0.465,9.515,0.672,13.452c0.457,1,2.324,0.591,3.699,0.673c0,2.242,0,4.483,0,6.726c-4.12,0.813-9.089,0.887-12.443-0.672
	c-1.035-0.642-1.651-1.595-2.018-2.69c-1.343-4.762-0.375-16.44-0.673-24.55C3.624,20.253,1.667,20.528,0,20.514
	c0-2.13,0-4.259,0-6.39C4.932,14.124,9.865,14.124,14.797,14.124z"/>
<path fill-rule="evenodd" clip-rule="evenodd" fill="#77B433" d="M74.826,14.009c0,4.568,0,9.603,0,14.46
	c0,4.754-0.465,9.515,0.672,13.452c0.458,1,2.324,0.591,3.699,0.673c0,2.241,0,4.483,0,6.726c-4.12,0.813-9.089,0.887-12.443-0.673
	c-1.034-0.642-1.651-1.594-2.018-2.69c-1.343-4.761-0.375-16.439-0.673-24.549c-0.412-1.27-2.368-0.995-4.035-1.009
	c0-2.13,0-4.26,0-6.39C64.961,14.009,69.894,14.009,74.826,14.009z"/>
<circle fill-rule="evenodd" clip-rule="evenodd" fill="#558830" cx="9.584" cy="5.044" r="5.044"/>
<circle fill-rule="evenodd" clip-rule="evenodd" fill="#558830" cx="69.613" cy="5.044" r="5.044"/>
<circle fill-rule="evenodd" clip-rule="evenodd" fill="#558830" cx="159.741" cy="5.101" r="5.044"/>
</svg>
